<svg xmlns="http://www.w3.org/2000/svg" xmlns:xlink="http://www.w3.org/1999/xlink" width="535" height="160" viewBox="0 0 535 160">
    <defs>
        <path id="a" d="M0 .533h533.515v119.654H0z"/>
    </defs>
    <g fill="none" fill-rule="evenodd">
        <g transform="translate(1 21)">
            <mask id="b" fill="#fff">
                <use xlink:href="#a"/>
            </mask>
            <path fill="#000" d="M505.813 45.381v-11.84H482.97v86.646h22.844V62.962c3.778-5.56 13.852-9.867 21.406-9.867 2.52 0 4.677.359 6.296.718V31.569c-10.793 0-21.585 6.1-27.702 13.812zm-35.255-11.84h-28.062L409.58 72.112V.533h-22.845v119.654h22.845V97.943l10.433-11.122 23.024 33.366h28.6l-35.435-47.36 34.356-39.286zm-96.234 0h-28.061l-32.917 38.571V.533H290.5v119.654h22.845V97.943l10.433-11.122 23.024 33.366h28.6l-35.435-47.36 34.356-39.286zm-129.331 86.646h22.846V33.541h-22.846v86.646zm-51.266-28.342L174.66 33.54h-20.326l-19.067 58.304-16.19-58.304H95.336l26.442 86.646h24.462l18.347-59.02 18.348 59.02h24.285l26.44-86.646h-23.743l-16.189 58.304zM99.471.533H67.993l-42.45 53.46V.533H-.001v119.654h25.544V83.413l9.352-11.124 36.335 47.898h31.48L51.804 56.683 99.47.533z" mask="url(#b)"/>
        </g>
        <path fill="#41C0F0" d="M244 31.5c0-7.46 6.217-13.5 13.5-13.5 7.46 0 13.5 6.04 13.5 13.5 0 7.463-6.04 13.5-13.5 13.5-7.283 0-13.5-6.037-13.5-13.5"/>
    </g>
</svg>
